<svg width="506" height="225" viewBox="0 0 506 225" fill="none" xmlns="http://www.w3.org/2000/svg">
<rect x="1.5" y="1.5" width="503" height="222" rx="18.5" fill="black" stroke="#8B32FD" stroke-width="3"/>
<g filter="url(#filter0_d_237_359)">
<path d="M100.396 60.256C104.536 60.256 107.83 61.102 110.278 62.794C112.726 64.45 113.95 66.934 113.95 70.246C113.95 72.694 113.338 74.746 112.114 76.402C110.926 78.022 109.288 79.246 107.2 80.074C105.148 80.866 102.79 81.262 100.126 81.262L98.8836 77.05C102.16 77.05 105.058 77.5 107.578 78.4C110.134 79.3 112.15 80.596 113.626 82.288C115.102 83.944 115.84 85.942 115.84 88.282C115.84 90.442 115.444 92.278 114.652 93.79C113.896 95.266 112.852 96.472 111.52 97.408C110.224 98.308 108.748 98.974 107.092 99.406C105.436 99.802 103.726 100 101.962 100H88.7316V60.256H100.396ZM101.314 76.51C102.862 76.51 103.996 76.042 104.716 75.106C105.472 74.17 105.85 73.108 105.85 71.92C105.85 70.552 105.382 69.526 104.446 68.842C103.546 68.158 102.322 67.816 100.774 67.816H96.5616V76.51H101.314ZM101.584 92.71C102.736 92.71 103.78 92.566 104.716 92.278C105.652 91.954 106.39 91.468 106.93 90.82C107.47 90.136 107.74 89.29 107.74 88.282C107.74 87.13 107.416 86.266 106.768 85.69C106.12 85.078 105.274 84.664 104.23 84.448C103.222 84.196 102.16 84.07 101.044 84.07H96.5616V92.71H101.584ZM122.452 57.394H130.012V100H122.452V57.394ZM147.734 100.648C145.538 100.648 143.54 100.216 141.74 99.352C139.976 98.452 138.572 97.084 137.528 95.248C136.484 93.412 135.962 91.072 135.962 88.228C135.962 85.564 136.502 83.26 137.582 81.316C138.662 79.372 140.084 77.878 141.848 76.834C143.612 75.754 145.484 75.214 147.464 75.214C149.804 75.214 151.568 75.61 152.756 76.402C153.98 77.158 154.988 78.004 155.78 78.94L155.456 79.858L156.158 76.402H163.178V100H155.618V94.87L156.212 96.49C156.14 96.49 155.924 96.706 155.564 97.138C155.204 97.534 154.664 98.02 153.944 98.596C153.26 99.136 152.396 99.604 151.352 100C150.344 100.432 149.138 100.648 147.734 100.648ZM149.894 94.492C150.794 94.492 151.604 94.366 152.324 94.114C153.044 93.826 153.674 93.43 154.214 92.926C154.754 92.386 155.222 91.72 155.618 90.928V85.15C155.33 84.358 154.898 83.692 154.322 83.152C153.746 82.576 153.062 82.144 152.27 81.856C151.478 81.532 150.596 81.37 149.624 81.37C148.544 81.37 147.536 81.658 146.6 82.234C145.7 82.774 144.98 83.53 144.44 84.502C143.9 85.474 143.63 86.59 143.63 87.85C143.63 89.11 143.918 90.244 144.494 91.252C145.07 92.26 145.826 93.052 146.762 93.628C147.734 94.204 148.778 94.492 149.894 94.492ZM191.002 97.894C189.958 98.722 188.644 99.388 187.06 99.892C185.512 100.396 183.982 100.648 182.47 100.648C179.77 100.648 177.412 100.162 175.396 99.19C173.416 98.182 171.868 96.76 170.752 94.924C169.672 93.052 169.132 90.802 169.132 88.174C169.132 85.546 169.726 83.314 170.914 81.478C172.102 79.606 173.65 78.184 175.558 77.212C177.502 76.24 179.536 75.754 181.66 75.754C183.784 75.754 185.62 76.042 187.168 76.618C188.752 77.194 190.102 77.95 191.218 78.886L187.546 83.746C187.042 83.35 186.34 82.954 185.44 82.558C184.576 82.126 183.55 81.91 182.362 81.91C181.318 81.91 180.364 82.18 179.5 82.72C178.636 83.26 177.952 83.998 177.448 84.934C176.944 85.87 176.692 86.95 176.692 88.174C176.692 89.326 176.962 90.388 177.502 91.36C178.042 92.332 178.78 93.106 179.716 93.682C180.688 94.222 181.822 94.492 183.118 94.492C183.946 94.492 184.702 94.384 185.386 94.168C186.106 93.916 186.718 93.574 187.222 93.142L191.002 97.894ZM196.808 100V57.394H204.368V100H196.808ZM210.362 83.962L221.054 100H212.252L205.394 88.282L210.362 83.962ZM202.1 93.466L201.344 86.284L215.6 75.808L220.19 79.858L202.1 93.466ZM75.337 114.256H100.177V121.816H83.167V130.834H97.909V138.394H83.167V154H75.337V114.256ZM113.278 130.402L113.98 136.882L113.818 135.91C114.502 134.506 115.438 133.318 116.626 132.346C117.814 131.338 118.984 130.564 120.136 130.024C121.324 129.484 122.224 129.214 122.836 129.214L122.458 136.774C120.694 136.558 119.182 136.846 117.922 137.638C116.662 138.43 115.69 139.474 115.006 140.77C114.322 142.066 113.98 143.398 113.98 144.766V154H106.474V130.402H113.278ZM128.622 130.402H136.182V154H128.622V130.402ZM128.46 122.032C128.46 120.916 128.892 119.998 129.756 119.278C130.656 118.558 131.61 118.198 132.618 118.198C133.626 118.198 134.544 118.558 135.372 119.278C136.236 119.998 136.668 120.916 136.668 122.032C136.668 123.148 136.236 124.066 135.372 124.786C134.544 125.47 133.626 125.812 132.618 125.812C131.61 125.812 130.656 125.47 129.756 124.786C128.892 124.066 128.46 123.148 128.46 122.032ZM153.58 154.648C151.384 154.648 149.422 154.144 147.694 153.136C145.966 152.092 144.598 150.598 143.59 148.654C142.618 146.71 142.132 144.406 142.132 141.742C142.132 139.078 142.672 136.81 143.752 134.938C144.832 133.066 146.308 131.644 148.18 130.672C150.052 129.7 152.176 129.214 154.552 129.214C156.064 129.214 157.504 129.448 158.872 129.916C160.276 130.384 161.446 131.104 162.382 132.076V134.452V111.394H169.888V154H162.328V149.41L162.922 151.03C161.698 152.038 160.33 152.902 158.818 153.622C157.306 154.306 155.56 154.648 153.58 154.648ZM156.064 148.276C157.072 148.276 157.954 148.15 158.71 147.898C159.502 147.61 160.186 147.214 160.762 146.71C161.374 146.17 161.896 145.504 162.328 144.712V138.934C162.04 138.142 161.59 137.476 160.978 136.936C160.402 136.36 159.682 135.928 158.818 135.64C157.99 135.316 157.072 135.154 156.064 135.154C154.948 135.154 153.904 135.442 152.932 136.018C151.996 136.558 151.24 137.314 150.664 138.286C150.088 139.258 149.8 140.374 149.8 141.634C149.8 142.894 150.088 144.028 150.664 145.036C151.24 146.044 151.996 146.836 152.932 147.412C153.904 147.988 154.948 148.276 156.064 148.276ZM187.601 154.648C185.405 154.648 183.407 154.216 181.607 153.352C179.843 152.452 178.439 151.084 177.395 149.248C176.351 147.412 175.829 145.072 175.829 142.228C175.829 139.564 176.369 137.26 177.449 135.316C178.529 133.372 179.951 131.878 181.715 130.834C183.479 129.754 185.351 129.214 187.331 129.214C189.671 129.214 191.435 129.61 192.623 130.402C193.847 131.158 194.855 132.004 195.647 132.94L195.323 133.858L196.025 130.402H203.045V154H195.485V148.87L196.079 150.49C196.007 150.49 195.791 150.706 195.431 151.138C195.071 151.534 194.531 152.02 193.811 152.596C193.127 153.136 192.263 153.604 191.219 154C190.211 154.432 189.005 154.648 187.601 154.648ZM189.761 148.492C190.661 148.492 191.471 148.366 192.191 148.114C192.911 147.826 193.541 147.43 194.081 146.926C194.621 146.386 195.089 145.72 195.485 144.928V139.15C195.197 138.358 194.765 137.692 194.189 137.152C193.613 136.576 192.929 136.144 192.137 135.856C191.345 135.532 190.463 135.37 189.491 135.37C188.411 135.37 187.403 135.658 186.467 136.234C185.567 136.774 184.847 137.53 184.307 138.502C183.767 139.474 183.497 140.59 183.497 141.85C183.497 143.11 183.785 144.244 184.361 145.252C184.937 146.26 185.693 147.052 186.629 147.628C187.601 148.204 188.645 148.492 189.761 148.492ZM212.725 165.34L228.439 130.402H235.243L220.015 165.34H212.725ZM219.043 154.108L207.487 130.402H215.965L224.875 150.328L219.043 154.108Z" fill="white"/>
</g>
<path d="M309.916 108.34H320.068V114.928H309.916V108.34ZM326.206 88.198H336.952V124H329.068V95.758H326.206V88.198ZM344.768 88.198H355.514V124H347.63V95.758H344.768V88.198ZM361.441 120.112C361.441 118.996 361.837 118.06 362.629 117.304C363.457 116.548 364.357 116.17 365.329 116.17C366.229 116.17 367.075 116.548 367.867 117.304C368.695 118.06 369.109 118.996 369.109 120.112C369.109 121.3 368.695 122.254 367.867 122.974C367.075 123.658 366.229 124 365.329 124C364.357 124 363.457 123.658 362.629 122.974C361.837 122.254 361.441 121.3 361.441 120.112ZM372.612 88.198H383.358V124H375.474V95.758H372.612V88.198ZM391.175 88.198H401.921V124H394.037V95.758H391.175V88.198ZM417.621 108.124C415.641 108.124 414.003 107.674 412.707 106.774C411.411 105.874 410.457 104.65 409.845 103.102C409.233 101.554 408.927 99.808 408.927 97.864C408.927 95.92 409.233 94.192 409.845 92.68C410.457 91.132 411.411 89.908 412.707 89.008C414.003 88.108 415.641 87.658 417.621 87.658C419.601 87.658 421.221 88.108 422.481 89.008C423.777 89.908 424.731 91.132 425.343 92.68C425.991 94.192 426.315 95.92 426.315 97.864C426.315 99.808 425.991 101.554 425.343 103.102C424.731 104.65 423.777 105.874 422.481 106.774C421.221 107.674 419.601 108.124 417.621 108.124ZM415.515 97.864C415.515 99.34 415.659 100.546 415.947 101.482C416.235 102.382 416.793 102.832 417.621 102.832C418.449 102.832 418.989 102.382 419.241 101.482C419.529 100.546 419.673 99.34 419.673 97.864C419.673 96.172 419.529 94.948 419.241 94.192C418.989 93.4 418.449 93.004 417.621 93.004C416.793 93.004 416.235 93.4 415.947 94.192C415.659 94.948 415.515 96.172 415.515 97.864ZM440.193 125.512C438.213 125.512 436.575 125.062 435.279 124.162C433.983 123.262 433.029 122.038 432.417 120.49C431.805 118.942 431.499 117.196 431.499 115.252C431.499 113.308 431.805 111.58 432.417 110.068C433.029 108.52 433.983 107.296 435.279 106.396C436.575 105.496 438.213 105.046 440.193 105.046C442.173 105.046 443.793 105.496 445.053 106.396C446.349 107.296 447.303 108.52 447.915 110.068C448.563 111.58 448.887 113.308 448.887 115.252C448.887 117.196 448.563 118.942 447.915 120.49C447.303 122.038 446.349 123.262 445.053 124.162C443.793 125.062 442.173 125.512 440.193 125.512ZM438.087 115.252C438.087 116.728 438.231 117.934 438.519 118.87C438.807 119.77 439.365 120.22 440.193 120.22C441.021 120.22 441.561 119.77 441.813 118.87C442.101 117.934 442.245 116.728 442.245 115.252C442.245 113.56 442.101 112.336 441.813 111.58C441.561 110.788 441.021 110.392 440.193 110.392C439.365 110.392 438.807 110.788 438.519 111.58C438.231 112.336 438.087 113.56 438.087 115.252ZM446.349 87.658L420.105 124.108L412.707 124L438.843 87.658H446.349Z" fill="white"/>
<defs>
<filter id="filter0_d_237_359" x="71.3369" y="57.394" width="167.906" height="115.946" filterUnits="userSpaceOnUse" color-interpolation-filters="sRGB">
<feFlood flood-opacity="0" result="BackgroundImageFix"/>
<feColorMatrix in="SourceAlpha" type="matrix" values="0 0 0 0 0 0 0 0 0 0 0 0 0 0 0 0 0 0 127 0" result="hardAlpha"/>
<feOffset dy="4"/>
<feGaussianBlur stdDeviation="2"/>
<feComposite in2="hardAlpha" operator="out"/>
<feColorMatrix type="matrix" values="0 0 0 0 0.545086 0 0 0 0 0.194201 0 0 0 0 0.991667 0 0 0 1 0"/>
<feBlend mode="normal" in2="BackgroundImageFix" result="effect1_dropShadow_237_359"/>
<feBlend mode="normal" in="SourceGraphic" in2="effect1_dropShadow_237_359" result="shape"/>
</filter>
</defs>
</svg>
